<svg width="9" height="9" viewBox="0 0 9 9" fill="none" xmlns="http://www.w3.org/2000/svg">
<path d="M7.659 8.583C7.71517 8.62258 7.78114 8.64597 7.84969 8.6506C7.91825 8.65524 7.98677 8.64095 8.04775 8.60929C8.10874 8.57764 8.15986 8.52983 8.19553 8.4711C8.23119 8.41237 8.25004 8.34496 8.25 8.27625V0.72375C8.25004 0.655036 8.23119 0.587632 8.19553 0.528899C8.15986 0.470166 8.10874 0.422361 8.04775 0.390706C7.98677 0.359051 7.91825 0.344761 7.84969 0.349398C7.78114 0.354036 7.71517 0.377421 7.659 0.417L2.30925 4.194C2.26034 4.22865 2.22045 4.27451 2.19292 4.32775C2.16539 4.381 2.15102 4.44006 2.15102 4.5C2.15102 4.55994 2.16539 4.619 2.19292 4.67225C2.22045 4.72549 2.26034 4.77135 2.30925 4.806L7.659 8.583ZM1.5 0.75C1.5 0.551088 1.42098 0.360322 1.28033 0.21967C1.13968 0.0790178 0.948912 0 0.75 0C0.551088 0 0.360322 0.0790178 0.219669 0.21967C0.0790171 0.360322 0 0.551088 0 0.75V8.25C0 8.44891 0.0790171 8.63968 0.219669 8.78033C0.360322 8.92098 0.551088 9 0.75 9C0.948912 9 1.13968 8.92098 1.28033 8.78033C1.42098 8.63968 1.5 8.44891 1.5 8.25V0.75Z" fill="white"/>
</svg>
