<svg width="12" height="20" viewBox="0 0 12 20" fill="none" xmlns="http://www.w3.org/2000/svg">
<path d="M9.62212 19.6042L0.304147 10.7388C0.193548 10.6332 0.115392 10.5189 0.0696774 10.3958C0.0232258 10.2726 0 10.1407 0 10C0 9.85928 0.0232258 9.72735 0.0696774 9.60422C0.115392 9.48109 0.193548 9.36675 0.304147 9.26121L9.62212 0.369393C9.88019 0.123131 10.2028 0 10.5899 0C10.977 0 11.3088 0.131926 11.5853 0.395778C11.8618 0.659631 12 0.967458 12 1.31926C12 1.67106 11.8618 1.97889 11.5853 2.24274L3.45622 10L11.5853 17.7573C11.8433 18.0035 11.9724 18.3068 11.9724 18.667C11.9724 19.028 11.8341 19.3404 11.5576 19.6042C11.2811 19.8681 10.9585 20 10.5899 20C10.2212 20 9.89862 19.8681 9.62212 19.6042V19.6042Z" fill="white"/>
</svg>
