<svg width="13" height="13" viewBox="0 0 13 13" fill="none" xmlns="http://www.w3.org/2000/svg">
<path d="M1 6.5H1.61111M6.5 1V1.61111M11.3889 6.5H12M2.58889 2.58889L3.01667 3.01667M10.4111 2.58889L9.98333 3.01667M5.09444 9.55556H7.90556M4.66667 8.94444C4.15362 8.55966 3.77465 8.0232 3.58343 7.41107C3.39221 6.79893 3.39845 6.14215 3.60125 5.53375C3.80404 4.92535 4.19313 4.39618 4.71339 4.0212C5.23364 3.64623 5.85869 3.44444 6.5 3.44444C7.14131 3.44444 7.76636 3.64623 8.28661 4.0212C8.80687 4.39618 9.19595 4.92535 9.39875 5.53375C9.60155 6.14215 9.60779 6.79893 9.41657 7.41107C9.22535 8.0232 8.84638 8.55966 8.33333 8.94444C8.09474 9.18063 7.91509 9.46966 7.80892 9.78816C7.70276 10.1067 7.67305 10.4457 7.72222 10.7778C7.72222 11.1019 7.59345 11.4128 7.36424 11.642C7.13503 11.8712 6.82415 12 6.5 12C6.17585 12 5.86497 11.8712 5.63576 11.642C5.40655 11.4128 5.27778 11.1019 5.27778 10.7778C5.32695 10.4457 5.29724 10.1067 5.19108 9.78816C5.08491 9.46966 4.90526 9.18063 4.66667 8.94444Z" stroke="white" stroke-linecap="round" stroke-linejoin="round"/>
</svg>
