<svg width="20" height="20" viewBox="0 0 20 20" fill="none" xmlns="http://www.w3.org/2000/svg">
<path fill-rule="evenodd" clip-rule="evenodd" d="M9.24996 4.3977C7.49478 3.24291 5.11512 2.71127 3.32857 2.50939C2.41365 2.40601 1.66663 3.17002 1.66663 4.11265V13.5C1.66663 14.4426 2.41365 15.2069 3.32857 15.3103C5.11512 15.5121 7.49478 16.0438 9.24996 17.1986V4.3977ZM10.75 17.1986C12.5051 16.0438 14.8848 15.5121 16.6714 15.3103C17.5863 15.2069 18.3333 14.4426 18.3333 13.5V4.11265C18.3333 3.17002 17.5863 2.40601 16.6714 2.50939C14.8848 2.71127 12.5051 3.24291 10.75 4.3977V17.1986ZM3.42546 6.76408C3.48885 6.35475 3.87208 6.07431 4.28141 6.1377C5.37322 6.30679 6.60504 6.5897 7.77046 7.04038C8.1568 7.18977 8.34887 7.62407 8.19948 8.0104C8.05008 8.39673 7.61579 8.58881 7.22945 8.43941C6.19118 8.03791 5.06966 7.77766 4.05184 7.62003C3.64251 7.55664 3.36207 7.17342 3.42546 6.76408ZM4.28141 9.47104C3.87208 9.40764 3.48885 9.68808 3.42546 10.0974C3.36207 10.5067 3.64251 10.89 4.05184 10.9534C4.5645 11.0328 5.10538 11.1385 5.64982 11.2758C6.05145 11.3772 6.45918 11.1337 6.56051 10.7321C6.66183 10.3305 6.41839 9.92275 6.01677 9.82142C5.42171 9.67129 4.83456 9.5567 4.28141 9.47104Z" fill="white"/>
</svg>
