<svg width="20" height="20" viewBox="0 0 20 20" fill="none" xmlns="http://www.w3.org/2000/svg">
<path d="M4.28141 6.13773C3.87208 6.07434 3.48885 6.35478 3.42546 6.76411C3.36207 7.17345 3.64251 7.55667 4.05184 7.62006L4.28141 6.13773ZM7.22945 8.43945C7.61579 8.58884 8.05008 8.39676 8.19948 8.01043C8.34887 7.6241 8.1568 7.1898 7.77046 7.04041L7.22945 8.43945ZM4.28141 9.47106C3.87208 9.40767 3.48885 9.68811 3.42546 10.0974C3.36207 10.5068 3.64251 10.89 4.05184 10.9534L4.28141 9.47106ZM5.64982 11.2759C6.05145 11.3772 6.45918 11.1338 6.56051 10.7321C6.66183 10.3305 6.41839 9.92278 6.01677 9.82145L5.64982 11.2759ZM10.75 5.0445C10.75 4.63029 10.4142 4.2945 9.99996 4.2945C9.58575 4.2945 9.24996 4.63029 9.24996 5.0445H10.75ZM9.24996 16.9188C9.24996 17.333 9.58575 17.6688 9.99996 17.6688C10.4142 17.6688 10.75 17.333 10.75 16.9188H9.24996ZM3.32857 2.50942L3.41278 1.76417L3.32857 2.50942ZM9.43065 4.5204L9.86104 3.90619L9.86104 3.90619L9.43065 4.5204ZM3.32857 15.3103L3.41278 14.565L3.41278 14.565L3.32857 15.3103ZM9.43065 17.3213L9.86104 16.7071L9.86104 16.7071L9.43065 17.3213ZM16.6714 2.50942L16.5871 1.76417L16.5871 1.76417L16.6714 2.50942ZM10.5693 4.5204L10.1389 3.90619L10.1389 3.90619L10.5693 4.5204ZM16.6714 15.3103L16.5871 14.565L16.5871 14.565L16.6714 15.3103ZM10.5693 17.3213L10.1389 16.7071L10.1389 16.7071L10.5693 17.3213ZM4.05184 7.62006C5.06966 7.77769 6.19118 8.03794 7.22945 8.43945L7.77046 7.04041C6.60504 6.58973 5.37322 6.30682 4.28141 6.13773L4.05184 7.62006ZM4.05184 10.9534C4.5645 11.0328 5.10538 11.1385 5.64982 11.2759L6.01677 9.82145C5.42171 9.67132 4.83456 9.55673 4.28141 9.47106L4.05184 10.9534ZM9.24996 5.0445V16.9188H10.75V5.0445H9.24996ZM3.24435 3.25468C5.05097 3.45883 7.38455 4.00245 9.00025 5.13462L9.86104 3.90619C7.93725 2.55814 5.30345 1.97781 3.41278 1.76417L3.24435 3.25468ZM3.24435 16.0556C5.05097 16.2597 7.38455 16.8033 9.00025 17.9355L9.86104 16.7071C7.93725 15.359 5.30345 14.7787 3.41278 14.565L3.24435 16.0556ZM0.916626 4.11268V13.5H2.41663V4.11268H0.916626ZM3.41278 14.565C2.84599 14.501 2.41663 14.0305 2.41663 13.5H0.916626C0.916626 14.8547 1.9813 15.9128 3.24435 16.0556L3.41278 14.565ZM3.41278 1.76417C1.98376 1.60269 0.916626 2.79531 0.916626 4.11268H2.41663C2.41663 3.54479 2.84353 3.20939 3.24435 3.25468L3.41278 1.76417ZM16.5871 1.76417C14.6965 1.97781 12.0627 2.55814 10.1389 3.90619L10.9997 5.13462C12.6154 4.00245 14.9489 3.45883 16.7556 3.25468L16.5871 1.76417ZM16.5871 14.565C14.6965 14.7787 12.0627 15.359 10.1389 16.7071L10.9997 17.9355C12.6154 16.8033 14.9489 16.2597 16.7556 16.0556L16.5871 14.565ZM17.5833 4.11268V13.5H19.0833V4.11268H17.5833ZM16.7556 16.0556C18.0186 15.9128 19.0833 14.8547 19.0833 13.5H17.5833C17.5833 14.0305 17.1539 14.501 16.5871 14.565L16.7556 16.0556ZM16.7556 3.25468C17.1564 3.20939 17.5833 3.54479 17.5833 4.11268H19.0833C19.0833 2.79531 18.0162 1.60269 16.5871 1.76417L16.7556 3.25468ZM9.00025 17.9355C9.59875 18.3549 10.4012 18.3549 10.9997 17.9355L10.1389 16.7071C10.0571 16.7644 9.9428 16.7644 9.86104 16.7071L9.00025 17.9355ZM9.00025 5.13462C9.59875 5.554 10.4012 5.554 10.9997 5.13462L10.1389 3.90619C10.0571 3.96348 9.9428 3.96348 9.86104 3.90619L9.00025 5.13462Z" fill="white"/>
</svg>
