<svg width="14" height="13" viewBox="0 0 14 13" fill="none" xmlns="http://www.w3.org/2000/svg">
<path d="M13.0538 3.2325H10.9537V5.34C10.9537 5.43946 10.9142 5.53484 10.8439 5.60516C10.7736 5.67549 10.6782 5.715 10.5787 5.715C10.4793 5.715 10.3839 5.67549 10.3136 5.60516C10.2433 5.53484 10.2037 5.43946 10.2037 5.34V3.2325H8.09625C7.99679 3.2325 7.90141 3.19299 7.83108 3.12266C7.76076 3.05234 7.72125 2.95696 7.72125 2.8575C7.72125 2.75804 7.76076 2.66266 7.83108 2.59233C7.90141 2.52201 7.99679 2.4825 8.09625 2.4825H10.2037V0.375C10.2037 0.275544 10.2433 0.180161 10.3136 0.109835C10.3839 0.0395089 10.4793 0 10.5787 0C10.6782 0 10.7736 0.0395089 10.8439 0.109835C10.9142 0.180161 10.9537 0.275544 10.9537 0.375V2.4825H13.0538C13.1532 2.4825 13.2486 2.52201 13.3189 2.59233C13.3892 2.66266 13.4288 2.75804 13.4288 2.8575C13.4288 2.95696 13.3892 3.05234 13.3189 3.12266C13.2486 3.19299 13.1532 3.2325 13.0538 3.2325ZM0.375 3.2325C0.275544 3.2325 0.180161 3.19299 0.109835 3.12266C0.0395087 3.05234 0 2.95696 0 2.8575C0 2.75804 0.0395087 2.66266 0.109835 2.59233C0.180161 2.52201 0.275544 2.4825 0.375 2.4825H5.33925C5.43871 2.4825 5.53409 2.52201 5.60441 2.59233C5.67474 2.66266 5.71425 2.75804 5.71425 2.8575C5.71425 2.95696 5.67474 3.05234 5.60441 3.12266C5.53409 3.19299 5.43871 3.2325 5.33925 3.2325H0.375ZM8.09325 9.3975C7.99379 9.3975 7.89841 9.35799 7.82808 9.28766C7.75776 9.21734 7.71825 9.12196 7.71825 9.0225C7.71825 8.92304 7.75776 8.82766 7.82808 8.75734C7.89841 8.68701 7.99379 8.6475 8.09325 8.6475H13.0575C13.157 8.6475 13.2523 8.68701 13.3227 8.75734C13.393 8.82766 13.4325 8.92304 13.4325 9.0225C13.4325 9.12196 13.393 9.21734 13.3227 9.28766C13.2523 9.35799 13.157 9.3975 13.0575 9.3975H8.09325ZM8.09325 12.5032C7.99379 12.5032 7.89841 12.4637 7.82808 12.3934C7.75776 12.3231 7.71825 12.2277 7.71825 12.1282C7.71825 12.0288 7.75776 11.9334 7.82808 11.8631C7.89841 11.7928 7.99379 11.7532 8.09325 11.7532H13.0575C13.157 11.7532 13.2523 11.7928 13.3227 11.8631C13.393 11.9334 13.4325 12.0288 13.4325 12.1282C13.4325 12.2277 13.393 12.3231 13.3227 12.3934C13.2523 12.4637 13.157 12.5032 13.0575 12.5032H8.09325ZM4.87875 12.0675C4.93971 12.1397 4.97119 12.2322 4.96689 12.3266C4.96259 12.4209 4.92283 12.5102 4.85556 12.5765C4.78828 12.6429 4.69846 12.6813 4.60403 12.6843C4.50961 12.6873 4.41755 12.6545 4.34625 12.5925L2.86125 11.1075C2.36625 11.595 1.86375 12.0975 1.36875 12.5925C1.29745 12.6545 1.20539 12.6873 1.11097 12.6843C1.01654 12.6813 0.926717 12.6429 0.859445 12.5765C0.792172 12.5102 0.752412 12.4209 0.748111 12.3266C0.743811 12.2322 0.775288 12.1397 0.83625 12.0675L2.32875 10.575L0.83625 9.0825C0.775288 9.01033 0.743811 8.91781 0.748111 8.82344C0.752412 8.72907 0.792172 8.6398 0.859445 8.57347C0.926717 8.50715 1.01654 8.46866 1.11097 8.4657C1.20539 8.46273 1.29745 8.49552 1.36875 8.5575L1.80375 8.9925L2.85375 10.0425C3.35625 9.5475 3.85125 9.0525 4.34625 8.5575C4.41755 8.49552 4.50961 8.46273 4.60403 8.4657C4.69846 8.46866 4.78828 8.50715 4.85556 8.57347C4.92283 8.6398 4.96259 8.72907 4.96689 8.82344C4.97119 8.91781 4.93971 9.01033 4.87875 9.0825L3.38625 10.575L4.87875 12.0675Z" fill="white"/>
</svg>
