<svg width="20" height="20" viewBox="0 0 20 20" fill="none" xmlns="http://www.w3.org/2000/svg">
<path fill-rule="evenodd" clip-rule="evenodd" d="M17.7534 6.7198C18.2009 6.7538 18.5346 7.11481 18.4989 7.52781C18.4924 7.59581 17.9051 14.3069 17.567 17.122C17.3568 18.869 16.1064 19.932 14.2189 19.964C12.7745 19.987 11.3811 20 10.0191 20C8.55087 20 7.11951 19.985 5.70333 19.958C3.89165 19.925 2.63799 18.841 2.4332 17.129C2.09188 14.2889 1.50786 7.59481 1.50244 7.52781C1.4656 7.11481 1.79933 6.7528 2.24683 6.7198C2.68783 6.7088 3.08657 6.99481 3.12233 7.40681C3.12579 7.45022 3.36455 10.1839 3.62473 12.8886L3.67699 13.4284C3.80803 14.7727 3.94087 16.0646 4.04876 16.964C4.1647 17.937 4.73356 18.439 5.73692 18.458C8.44577 18.511 11.2099 18.514 14.1896 18.464C15.2558 18.445 15.8323 17.953 15.9515 16.957C16.2874 14.1629 16.8725 7.47481 16.879 7.40681C16.9147 6.99481 17.3102 6.7068 17.7534 6.7198ZM12.2932 0C13.2879 0 14.1623 0.619009 14.4191 1.50602L14.6943 2.76704C14.7833 3.18042 15.1763 3.48231 15.6315 3.48894L19.1873 3.48905C19.6359 3.48905 20 3.82506 20 4.23906C20 4.65307 19.6359 4.98907 19.1873 4.98907L15.6632 4.98892C15.6577 4.98902 15.6523 4.98907 15.6468 4.98907L15.6203 4.98807L4.37926 4.98895C4.37052 4.98903 4.36177 4.98907 4.35302 4.98907L4.33633 4.98807L0.812656 4.98907C0.36407 4.98907 0 4.65307 0 4.23906C0 3.82506 0.36407 3.48905 0.812656 3.48905L4.36775 3.48805L4.47721 3.48166C4.88494 3.43284 5.22379 3.14705 5.30653 2.76704L5.56983 1.55102C5.83747 0.619009 6.71189 0 7.70658 0H12.2932ZM12.2932 1.50002H7.70658C7.44653 1.50002 7.2179 1.66102 7.1518 1.89203L6.89934 3.06205C6.86725 3.21024 6.82053 3.35306 6.76074 3.48932H13.2394C13.1795 3.35306 13.1327 3.21024 13.1004 3.06205L12.8371 1.84603C12.7819 1.66102 12.5533 1.50002 12.2932 1.50002Z" fill="white"/>
</svg>
