<svg width="14" height="13" viewBox="0 0 14 13" fill="none" xmlns="http://www.w3.org/2000/svg">
<path d="M4 13H1C0.734784 13 0.48043 12.8946 0.292893 12.7071C0.105357 12.5196 0 12.2652 0 12V6C0 5.73478 0.105357 5.48043 0.292893 5.29289C0.48043 5.10536 0.734784 5 1 5H4C4.26522 5 4.51957 5.10536 4.70711 5.29289C4.89464 5.48043 5 5.73478 5 6V12C5 12.2652 4.89464 12.5196 4.70711 12.7071C4.51957 12.8946 4.26522 13 4 13ZM1 6V12H4V6H1Z" fill="white"/>
<path d="M13 0H2C1.73478 0 1.48043 0.105357 1.29289 0.292893C1.10536 0.48043 1 0.734784 1 1V4H2V1H13V8H6V9H7V11H6V12H10.5V11H8V9H13C13.2652 9 13.5196 8.89464 13.7071 8.70711C13.8946 8.51957 14 8.26522 14 8V1C14 0.734784 13.8946 0.48043 13.7071 0.292893C13.5196 0.105357 13.2652 0 13 0V0Z" fill="white"/>
</svg>
