<svg width="20" height="20" viewBox="0 0 20 20" fill="none" xmlns="http://www.w3.org/2000/svg">
<path fill-rule="evenodd" clip-rule="evenodd" d="M9.99976 0C15.5137 0 19.9998 4.48605 19.9998 10C19.9998 15.5139 15.5137 20 9.99976 20C4.48581 20 -0.000244141 15.5139 -0.000244141 10C-0.000244141 4.48605 4.48581 0 9.99976 0ZM9.99976 1.44774C5.28399 1.44774 1.44749 5.2852 1.44749 10C1.44749 14.7158 5.28399 18.5523 9.99976 18.5523C14.7155 18.5523 18.552 14.7158 18.552 10C18.552 5.2852 14.7155 1.44774 9.99976 1.44774ZM13.7365 6.26378C13.9266 6.45488 13.9961 6.73574 13.915 6.99151L12.3785 11.9032C12.308 12.13 12.1295 12.3076 11.9036 12.3781L6.99194 13.9155C6.92052 13.9377 6.84716 13.9484 6.77574 13.9484C6.58657 13.9484 6.40126 13.874 6.26324 13.737C6.07311 13.5459 6.00362 13.265 6.08469 13.0093L7.62219 8.09758C7.69264 7.8698 7.87023 7.69318 8.09608 7.62272L13.0078 6.08522C13.2655 6.00319 13.5454 6.07364 13.7365 6.26378ZM12.1208 7.87945L8.8904 8.89094L7.87988 12.1213L11.1093 11.1098L12.1208 7.87945Z" fill="white"/>
</svg>
