<svg width="17" height="14" viewBox="0 0 17 14" fill="none" xmlns="http://www.w3.org/2000/svg">
<path d="M11.5 2.71173C11.4999 3.16302 11.3215 3.59597 11.0035 3.91623C10.2715 4.65423 9.56125 5.42373 8.8015 6.13473C8.71668 6.212 8.60542 6.25376 8.4907 6.25139C8.37598 6.24902 8.26655 6.20269 8.185 6.12198L5.9965 3.91698C5.67837 3.59652 5.49985 3.16328 5.49985 2.71173C5.49985 2.26018 5.67837 1.82694 5.9965 1.50648C6.15524 1.34657 6.34405 1.21965 6.55207 1.13304C6.76008 1.04643 6.98317 1.00184 7.2085 1.00184C7.43382 1.00184 7.65692 1.04643 7.86493 1.13304C8.07294 1.21965 8.26176 1.34657 8.4205 1.50648L8.5 1.58673L8.5795 1.50648C8.81777 1.26563 9.12233 1.10113 9.45439 1.03392C9.78646 0.966716 10.131 0.999844 10.4442 1.12909C10.7574 1.25833 11.025 1.47785 11.213 1.75968C11.401 2.04152 11.5009 2.37293 11.5 2.71173V2.71173Z" stroke="white" stroke-width="1.125" stroke-linejoin="round"/>
<path d="M13 13.0017L15.868 10.1337C15.9524 10.0494 15.9999 9.93504 16 9.81573V5.87673C16 5.57836 15.8815 5.29221 15.6705 5.08123C15.4595 4.87026 15.1734 4.75173 14.875 4.75173V4.75173C14.5766 4.75173 14.2905 4.87026 14.0795 5.08123C13.8685 5.29221 13.75 5.57836 13.75 5.87673V9.25173" stroke="white" stroke-width="1.125" stroke-linecap="round" stroke-linejoin="round"/>
<path d="M13 10.0017L13.6435 9.35823C13.6773 9.32447 13.7041 9.28437 13.7224 9.24022C13.7407 9.19608 13.7501 9.14876 13.75 9.10098C13.7499 9.03354 13.731 8.96745 13.6955 8.9101C13.6601 8.85276 13.6093 8.80641 13.549 8.77623L13.2167 8.61048C12.9353 8.46974 12.6166 8.4211 12.306 8.47144C11.9953 8.52178 11.7084 8.66855 11.4857 8.89098L10.8145 9.56223C10.5332 9.84347 10.3751 10.2249 10.375 10.6227V13.0017M4 13.0017L1.132 10.1337C1.04758 10.0494 1.00011 9.93504 1 9.81573V5.87673C1 5.57836 1.11853 5.29221 1.3295 5.08123C1.54048 4.87026 1.82663 4.75173 2.125 4.75173V4.75173C2.42337 4.75173 2.70952 4.87026 2.9205 5.08123C3.13147 5.29221 3.25 5.57836 3.25 5.87673V9.25173" stroke="white" stroke-width="1.125" stroke-linecap="round" stroke-linejoin="round"/>
<path d="M4 10.0017L3.3565 9.35823C3.32273 9.32444 3.29594 9.28434 3.27766 9.2402C3.25939 9.19606 3.24999 9.14875 3.25 9.10098V9.10098C3.25 8.96373 3.328 8.83848 3.451 8.77623L3.78325 8.61048C4.06473 8.46974 4.38335 8.42109 4.69401 8.47143C5.00466 8.52177 5.29162 8.66855 5.51425 8.89098L6.1855 9.56223C6.46682 9.84347 6.62492 10.2249 6.625 10.6227V13.0017" stroke="white" stroke-width="1.125" stroke-linecap="round" stroke-linejoin="round"/>
</svg>
