<svg width="9" height="9" viewBox="0 0 9 9" fill="none" xmlns="http://www.w3.org/2000/svg">
<path d="M0.591 8.583C0.53483 8.62258 0.468864 8.64597 0.400306 8.6506C0.331748 8.65524 0.263234 8.64095 0.202245 8.60929C0.141257 8.57764 0.0901382 8.52983 0.0544718 8.4711C0.0188053 8.41237 -3.77646e-05 8.34496 5.68237e-08 8.27625V0.72375C-3.77646e-05 0.655036 0.0188053 0.587632 0.0544718 0.528899C0.0901382 0.470166 0.141257 0.422361 0.202245 0.390706C0.263234 0.359051 0.331748 0.344761 0.400306 0.349398C0.468864 0.354036 0.53483 0.377421 0.591 0.417L5.94075 4.194C5.98966 4.22865 6.02955 4.27451 6.05708 4.32775C6.08461 4.381 6.09898 4.44006 6.09898 4.5C6.09898 4.55994 6.08461 4.619 6.05708 4.67225C6.02955 4.72549 5.98966 4.77135 5.94075 4.806L0.591 8.583ZM6.75 0.75C6.75 0.551088 6.82902 0.360322 6.96967 0.21967C7.11032 0.0790178 7.30109 0 7.5 0C7.69891 0 7.88968 0.0790178 8.03033 0.21967C8.17098 0.360322 8.25 0.551088 8.25 0.75V8.25C8.25 8.44891 8.17098 8.63968 8.03033 8.78033C7.88968 8.92098 7.69891 9 7.5 9C7.30109 9 7.11032 8.92098 6.96967 8.78033C6.82902 8.63968 6.75 8.44891 6.75 8.25V0.75Z" fill="white"/>
</svg>
