<svg width="13" height="12" viewBox="0 0 13 12" fill="none" xmlns="http://www.w3.org/2000/svg">
<path d="M11.2673 1.55291e-07C10.8922 -0.000156334 10.5273 0.117964 10.2273 0.336606C9.92726 0.555249 9.70839 0.862601 9.60355 1.21247C9.49872 1.56233 9.51359 1.9358 9.64593 2.27675C9.77827 2.6177 10.0209 2.90771 10.3374 3.10317L9.20676 6.94829C9.17166 6.94612 9.1365 6.94498 9.10133 6.94487C8.72861 6.94448 8.36579 7.0615 8.06729 7.27838L5.97842 5.58702C6.07731 5.30192 6.09578 4.99629 6.03189 4.70191C5.96801 4.40754 5.8241 4.13517 5.61516 3.91315C5.40621 3.69113 5.13985 3.52757 4.84379 3.43948C4.54773 3.35138 4.23279 3.34199 3.93172 3.41225C3.63066 3.48252 3.35447 3.62989 3.13189 3.83904C2.90931 4.04818 2.74848 4.31145 2.66612 4.60146C2.58376 4.89147 2.58288 5.19763 2.66358 5.48808C2.74428 5.77854 2.9036 6.04267 3.12498 6.25301L1.89874 8.63605C1.84504 8.6311 1.79113 8.62857 1.73719 8.62848C1.32208 8.62796 0.920539 8.77207 0.605451 9.03466C0.290363 9.29724 0.0826134 9.66089 0.019911 10.0596C-0.0427914 10.4583 0.0437101 10.8656 0.263714 11.2077C0.483718 11.5497 0.822642 11.8038 1.21897 11.9237C1.61529 12.0437 2.04274 12.0216 2.42374 11.8615C2.80473 11.7013 3.11401 11.4138 3.29544 11.051C3.47687 10.6882 3.51842 10.2743 3.41255 9.8843C3.30668 9.4943 3.06041 9.15411 2.71843 8.92547L3.8772 6.67394C4.15868 6.74939 4.45525 6.75433 4.73923 6.68829C5.0232 6.62225 5.28533 6.48739 5.50116 6.29629L7.52359 7.93391C7.38626 8.22798 7.33886 8.55422 7.38704 8.87373C7.43523 9.19325 7.57698 9.49256 7.79538 9.73597C8.01378 9.97939 8.29962 10.1566 8.61881 10.2466C8.93801 10.3365 9.2771 10.3354 9.59565 10.2433C9.9142 10.1512 10.1988 9.97204 10.4154 9.72716C10.6321 9.48228 10.7717 9.18202 10.8176 8.86219C10.8635 8.54236 10.8138 8.21644 10.6744 7.92331C10.5349 7.63017 10.3117 7.38218 10.0312 7.20891L11.1618 3.36379C11.1967 3.36584 11.2318 3.36721 11.2673 3.36721C11.7268 3.36721 12.1675 3.18983 12.4925 2.87409C12.8174 2.55836 13 2.13013 13 1.68361C13 1.23709 12.8174 0.808854 12.4925 0.493117C12.1675 0.177379 11.7268 1.55291e-07 11.2673 1.55291e-07ZM1.73719 11.1539C1.56584 11.1539 1.39833 11.1045 1.25586 11.012C1.11338 10.9195 1.00234 10.788 0.936766 10.6342C0.871192 10.4804 0.854035 10.3111 0.887464 10.1479C0.920893 9.98456 1.00341 9.83457 1.12457 9.71684C1.24574 9.59911 1.40011 9.51893 1.56817 9.48645C1.73623 9.45397 1.91042 9.47064 2.06873 9.53436C2.22704 9.59807 2.36235 9.70597 2.45755 9.8444C2.55275 9.98283 2.60356 10.1456 2.60356 10.3121C2.6033 10.5353 2.51194 10.7492 2.34952 10.907C2.1871 11.0649 1.96688 11.1536 1.73719 11.1539ZM4.3363 5.89262C4.16495 5.89262 3.99744 5.84325 3.85497 5.75075C3.71249 5.65825 3.60145 5.52678 3.53588 5.37296C3.4703 5.21914 3.45315 5.04988 3.48657 4.88659C3.52 4.72329 3.60252 4.5733 3.72368 4.45557C3.84485 4.33784 3.99922 4.25767 4.16728 4.22519C4.33534 4.19271 4.50953 4.20938 4.66784 4.27309C4.82615 4.33681 4.96146 4.4447 5.05666 4.58313C5.15186 4.72157 5.20267 4.88432 5.20267 5.05082C5.20241 5.274 5.11105 5.48797 4.94863 5.64578C4.78621 5.8036 4.56599 5.89237 4.3363 5.89262ZM9.10133 9.47028C8.92998 9.47028 8.76248 9.42091 8.62 9.32841C8.47753 9.23591 8.36649 9.10444 8.30091 8.95062C8.23534 8.7968 8.21818 8.62754 8.25161 8.46425C8.28504 8.30095 8.36755 8.15096 8.48872 8.03323C8.60988 7.9155 8.76425 7.83533 8.93231 7.80285C9.10037 7.77037 9.27457 7.78704 9.43288 7.85075C9.59119 7.91447 9.7265 8.02236 9.82169 8.1608C9.91689 8.29923 9.9677 8.46198 9.9677 8.62848C9.96745 8.85166 9.87608 9.06563 9.71366 9.22344C9.55124 9.38126 9.33103 9.47003 9.10133 9.47028ZM11.2673 2.52541C11.0959 2.52541 10.9284 2.47604 10.7859 2.38354C10.6435 2.29104 10.5324 2.15957 10.4668 2.00575C10.4013 1.85193 10.3841 1.68267 10.4175 1.51938C10.451 1.35608 10.5335 1.20609 10.6546 1.08836C10.7758 0.970633 10.9302 0.890459 11.0982 0.857978C11.2663 0.825497 11.4405 0.842167 11.5988 0.905881C11.7571 0.969595 11.8924 1.07749 11.9876 1.21592C12.0828 1.35436 12.1336 1.51711 12.1336 1.68361C12.1334 1.90679 12.042 2.12076 11.8796 2.27857C11.7172 2.43639 11.497 2.52516 11.2673 2.52541Z" fill="white"/>
</svg>
