<svg width="14" height="13" viewBox="0 0 14 13" fill="none" xmlns="http://www.w3.org/2000/svg">
<path d="M13.9671 11.2359L13.3807 9.13135L11.0423 0.706169C10.9728 0.462073 10.8062 0.254298 10.5786 0.128028C10.351 0.00175758 10.081 -0.0327956 9.82714 0.0318825L7.64412 0.597194C7.58958 0.610508 7.53727 0.631142 7.48869 0.658492C7.40087 0.517307 7.27663 0.400446 7.12807 0.319284C6.9795 0.238122 6.81167 0.195424 6.64091 0.195346H4.38018C4.17803 0.194242 3.98052 0.253745 3.81499 0.36562C3.64947 0.253745 3.45196 0.194242 3.24981 0.195346H0.989072C0.726754 0.195346 0.47518 0.295808 0.289693 0.474631C0.104206 0.653453 0 0.895989 0 1.14888V12.0464C0 12.2993 0.104206 12.5419 0.289693 12.7207C0.47518 12.8995 0.726754 13 0.989072 13H3.24981C3.45196 13.0011 3.64947 12.9416 3.81499 12.8297C3.98052 12.9416 4.17803 13.0011 4.38018 13H6.64091C6.90323 13 7.15481 12.8995 7.34029 12.7207C7.52578 12.5419 7.62999 12.2993 7.62999 12.0464V4.22744L9.86953 12.2916C9.92689 12.495 10.052 12.6745 10.2257 12.8025C10.3993 12.9305 10.6118 12.9999 10.8303 13C10.9162 12.9987 11.0017 12.9872 11.0847 12.9659L13.2677 12.4006C13.5204 12.3351 13.7358 12.1758 13.8669 11.9575C13.998 11.7392 14.034 11.4798 13.9671 11.2359V11.2359ZM8.45657 4.05717L10.9151 3.42375L12.4552 8.94745L9.9967 9.58087L8.45657 4.05717ZM7.77835 1.45538C7.79647 1.42301 7.82683 1.39862 7.86313 1.38727L10.0461 0.821956H10.0815C10.1122 0.822623 10.142 0.832035 10.1671 0.849004C10.1922 0.865974 10.2116 0.889741 10.2228 0.91731L10.6961 2.63368L8.23756 3.2671L7.76422 1.55754C7.75559 1.52298 7.76063 1.48656 7.77835 1.45538V1.45538ZM4.38018 1.01266H6.64091C6.67839 1.01266 6.71433 1.02701 6.74083 1.05256C6.76732 1.07811 6.78221 1.11276 6.78221 1.14888V9.45828H4.23888V1.14888C4.23888 1.11276 4.25377 1.07811 4.28027 1.05256C4.30676 1.02701 4.3427 1.01266 4.38018 1.01266ZM0.989072 1.01266H3.24981C3.28728 1.01266 3.32322 1.02701 3.34972 1.05256C3.37622 1.07811 3.39111 1.11276 3.39111 1.14888V2.91974H0.847776V1.14888C0.847776 1.11276 0.862663 1.07811 0.889161 1.05256C0.915659 1.02701 0.951598 1.01266 0.989072 1.01266ZM3.24981 12.1827H0.989072C0.951598 12.1827 0.915659 12.1683 0.889161 12.1428C0.862663 12.1172 0.847776 12.0826 0.847776 12.0464V3.73705H3.39111V12.0464C3.39111 12.0826 3.37622 12.1172 3.34972 12.1428C3.32322 12.1683 3.28728 12.1827 3.24981 12.1827ZM6.64091 12.1827H4.38018C4.3427 12.1827 4.30676 12.1683 4.28027 12.1428C4.25377 12.1172 4.23888 12.0826 4.23888 12.0464V10.2756H6.78221V12.0464C6.78221 12.0826 6.76732 12.1172 6.74083 12.1428C6.71433 12.1683 6.67839 12.1827 6.64091 12.1827ZM13.0487 11.6105L10.8657 12.1759C10.8476 12.181 10.8286 12.1826 10.8098 12.1806C10.7911 12.1786 10.773 12.173 10.7565 12.1641C10.74 12.1552 10.7256 12.1432 10.714 12.1289C10.7024 12.1145 10.6939 12.0981 10.689 12.0805L10.2157 10.3709L12.6743 9.73753L13.1476 11.4471C13.1529 11.4641 13.1545 11.4819 13.1523 11.4996C13.1502 11.5172 13.1443 11.5342 13.135 11.5495C13.1257 11.5649 13.1133 11.5782 13.0984 11.5887C13.0836 11.5992 13.0666 11.6066 13.0487 11.6105V11.6105Z" fill="white"/>
</svg>
