<svg width="14" height="13" viewBox="0 0 14 13" fill="none" xmlns="http://www.w3.org/2000/svg">
<path d="M6.64577 1.75828L7 2.11388L7.35423 1.75828C7.99454 1.1155 9.02254 0.5 10.15 0.5C11.9684 0.5 13.5 1.99973 13.5 4.21622C13.5 6.48303 12.2929 8.29313 10.8125 9.6943C9.49972 10.9369 8.02096 11.813 7.07937 12.3708C7.05247 12.3868 7.02601 12.4024 7 12.4179C6.97399 12.4024 6.94753 12.3868 6.92063 12.3708C5.97904 11.813 4.50028 10.9369 3.18746 9.6943C1.70709 8.29313 0.5 6.48303 0.5 4.21622C0.5 2.00204 2.05602 0.5 3.85 0.5C4.97746 0.5 6.00546 1.1155 6.64577 1.75828Z" stroke="#FF0000"/>
</svg>
