<svg width="20" height="20" viewBox="0 0 20 20" fill="none" xmlns="http://www.w3.org/2000/svg">
<path fill-rule="evenodd" clip-rule="evenodd" d="M11.431 13.291C12.6056 13.291 13.5617 14.1959 13.5617 15.3082V18.1689C13.5617 18.4079 13.7627 18.5995 14.0202 18.605H15.8798C17.3451 18.605 18.5363 17.4835 18.5363 16.1052V7.99182C18.5295 7.51751 18.2924 7.07111 17.8856 6.77444L11.4534 1.88447C10.59 1.23254 9.3822 1.23254 8.51585 1.88633L2.12756 6.77258C1.70512 7.07855 1.46805 7.52495 1.46317 8.00763V16.1052C1.46317 17.4835 2.65439 18.605 4.11976 18.605H5.99683C6.26122 18.605 6.47585 18.4051 6.47585 18.1596C6.47585 18.1056 6.48268 18.0517 6.49439 18.0005V15.3082C6.49439 14.2024 7.44463 13.2984 8.61049 13.291H11.431ZM15.8798 20H14.0027C12.9276 19.9759 12.0983 19.1714 12.0983 18.1689V15.3082C12.0983 14.965 11.7988 14.686 11.431 14.686H8.61537C8.25537 14.6879 7.95781 14.9678 7.95781 15.3082V18.1596C7.95781 18.2293 7.94805 18.2963 7.92756 18.3595C7.8222 19.2802 6.99683 20 5.99683 20H4.11976C1.84756 20 -0.000244141 18.2526 -0.000244141 16.1052V8.00112C0.00951196 7.07669 0.456341 6.23038 1.22805 5.67331L7.60366 0.795433C9.00756 -0.264773 10.9637 -0.264773 12.3646 0.793573L18.7861 5.6761C19.5402 6.22388 19.9871 7.06832 19.9998 7.98159V16.1052C19.9998 18.2526 18.152 20 15.8798 20Z" fill="white"/>
</svg>
