<svg width="18" height="14" viewBox="0 0 18 14" fill="none" xmlns="http://www.w3.org/2000/svg">
<path d="M12.9757 5.62252H17.3992C17.4527 5.62254 17.505 5.63778 17.5501 5.66647C17.5952 5.69515 17.6312 5.73609 17.6538 5.78449C17.6765 5.83289 17.6849 5.88674 17.6781 5.93974C17.6712 5.99274 17.6494 6.0427 17.6152 6.08377L15.4035 8.73877C15.3771 8.77042 15.3441 8.79588 15.3067 8.81336C15.2694 8.83083 15.2287 8.83989 15.1875 8.83989C15.1463 8.83989 15.1056 8.83083 15.0682 8.81336C15.0309 8.79588 14.9979 8.77042 14.9715 8.73877L12.7597 6.08377C12.7255 6.0427 12.7037 5.99274 12.6969 5.93974C12.6901 5.88674 12.6985 5.83289 12.7211 5.78449C12.7438 5.73609 12.7798 5.69515 12.8249 5.66647C12.87 5.63778 12.9223 5.62254 12.9757 5.62252ZM0.600725 7.87252H5.02423C5.07767 7.8725 5.13 7.85725 5.17509 7.82856C5.22018 7.79988 5.25616 7.75894 5.27882 7.71054C5.30149 7.66214 5.3099 7.60829 5.30306 7.55529C5.29622 7.50229 5.27443 7.45233 5.24022 7.41127L3.02847 4.75627C3.00208 4.72461 2.96905 4.69915 2.93172 4.68167C2.8944 4.6642 2.85369 4.65514 2.81247 4.65514C2.77126 4.65514 2.73055 4.6642 2.69323 4.68167C2.6559 4.69915 2.62287 4.72461 2.59647 4.75627L0.384725 7.41127C0.350522 7.45233 0.328727 7.50229 0.321891 7.55529C0.315055 7.60829 0.323461 7.66214 0.346125 7.71054C0.368789 7.75894 0.404773 7.79988 0.449864 7.82856C0.494954 7.85725 0.547283 7.8725 0.600725 7.87252Z" fill="white"/>
<path fill-rule="evenodd" clip-rule="evenodd" d="M8.99995 1.12252C7.25395 1.12252 5.69245 1.91789 4.66082 3.16777C4.61476 3.22747 4.55716 3.27731 4.49144 3.31431C4.42573 3.35131 4.35325 3.37471 4.27831 3.38314C4.20337 3.39157 4.1275 3.38484 4.05522 3.36335C3.98293 3.34187 3.9157 3.30607 3.85752 3.25808C3.79935 3.21009 3.75142 3.1509 3.71658 3.08401C3.68175 3.01713 3.66071 2.94393 3.65474 2.86875C3.64876 2.79358 3.65796 2.71797 3.68179 2.64642C3.70562 2.57487 3.74359 2.50884 3.79345 2.45227C4.61716 1.45498 5.70999 0.715278 6.94194 0.321128C8.1739 -0.073022 9.49315 -0.105028 10.7428 0.228915C11.9924 0.562859 13.1198 1.2487 13.9909 2.20486C14.862 3.16103 15.4402 4.34727 15.6566 5.62252H14.5124C14.2527 4.35217 13.5622 3.21051 12.5578 2.39055C11.5534 1.5706 10.2966 1.12267 8.99995 1.12252ZM3.48745 7.87252C3.70042 8.91272 4.20334 9.87144 4.93811 10.6379C5.67288 11.4044 6.6095 11.9474 7.63978 12.2041C8.67006 12.4608 9.75195 12.4208 10.7605 12.0887C11.769 11.7566 12.6629 11.1459 13.3391 10.3273C13.3851 10.2676 13.4427 10.2177 13.5085 10.1807C13.5742 10.1437 13.6466 10.1203 13.7216 10.1119C13.7965 10.1035 13.8724 10.1102 13.9447 10.1317C14.017 10.1532 14.0842 10.189 14.1424 10.2369C14.2005 10.2849 14.2485 10.3441 14.2833 10.411C14.3181 10.4779 14.3392 10.5511 14.3452 10.6263C14.3511 10.7015 14.3419 10.7771 14.3181 10.8486C14.2943 10.9202 14.2563 10.9862 14.2064 11.0428C13.3827 12.04 12.2899 12.7798 11.058 13.1739C9.82599 13.5681 8.50675 13.6001 7.25713 13.2661C6.0075 12.9322 4.88009 12.2463 4.00899 11.2902C3.13788 10.334 2.55974 9.14776 2.34332 7.87252H3.48745Z" fill="white"/>
</svg>
