<svg width="12" height="15" viewBox="0 0 12 15" fill="none" xmlns="http://www.w3.org/2000/svg">
<path d="M5.5323 0.0198877C5.46499 -0.000816749 5.39376 -0.00543438 5.32434 0.00640647C5.25492 0.0182473 5.18925 0.0462159 5.13261 0.0880626C5.07596 0.129909 5.02993 0.184466 4.99822 0.247343C4.9665 0.310221 4.94999 0.379664 4.95 0.450088V9.36459C4.45853 8.89307 3.81793 8.60784 3.13867 8.55809C2.45941 8.50834 1.78408 8.69718 1.22915 9.09206C0.674228 9.48693 0.274494 10.0631 0.0988935 10.7211C-0.0767074 11.3792 -0.0171662 12.0779 0.267248 12.6967C0.551663 13.3156 1.04312 13.8158 1.65686 14.1111C2.2706 14.4064 2.96814 14.4782 3.62919 14.3142C4.29024 14.1503 4.87334 13.7608 5.27794 13.2129C5.68254 12.665 5.88327 11.9931 5.8455 11.3131C5.84845 11.2922 5.84996 11.2712 5.85 11.2501V4.65939L11.1177 6.27939C11.1849 6.30007 11.2561 6.3047 11.3254 6.29291C11.3948 6.28111 11.4604 6.25322 11.517 6.21148C11.5737 6.16974 11.6197 6.1153 11.6515 6.05253C11.6833 5.98977 11.6999 5.92043 11.7 5.85009V3.57939C11.7001 3.0981 11.5459 2.62947 11.2599 2.24232C10.974 1.85516 10.5715 1.56989 10.1115 1.42839L5.5323 0.0198877V0.0198877Z" fill="white"/>
</svg>
