<svg width="18" height="20" viewBox="0 0 18 20" fill="none" xmlns="http://www.w3.org/2000/svg">
<path fill-rule="evenodd" clip-rule="evenodd" d="M6.81336 17.773C7.29522 18.3098 7.91382 18.6047 8.55568 18.6047H8.55661C9.20126 18.6047 9.82266 18.3098 10.3054 17.7721C10.5641 17.4865 11.005 17.4633 11.2906 17.7209C11.5771 17.9786 11.6003 18.4205 11.3427 18.706C10.591 19.5405 9.60219 20 8.55661 20H8.55475C7.51196 19.9991 6.52498 19.5395 5.77615 18.7051C5.51847 18.4195 5.54173 17.9777 5.82824 17.7209C6.11475 17.4623 6.55568 17.4856 6.81336 17.773ZM8.60201 0C12.7369 0 15.5146 3.22047 15.5146 6.22791C15.5146 7.77488 15.9081 8.4307 16.3257 9.12651C16.7388 9.81302 17.2067 10.5926 17.2067 12.066C16.882 15.8307 12.9518 16.1377 8.60201 16.1377C4.25224 16.1377 0.321077 15.8307 0.000134383 12.1256C-0.00264389 10.5926 0.465263 9.81302 0.878286 9.12651L1.0241 8.88108C1.3831 8.26405 1.68945 7.59289 1.68945 6.22791C1.68945 3.22047 4.46712 0 8.60201 0ZM8.60201 1.39535C5.35084 1.39535 3.0848 3.94233 3.0848 6.22791C3.0848 8.16186 2.54805 9.05581 2.07364 9.84465C1.69317 10.4781 1.3927 10.9786 1.3927 12.066C1.54805 13.8205 2.70619 14.7423 8.60201 14.7423C14.4653 14.7423 15.6597 13.7795 15.8141 12.0056C15.8113 10.9786 15.5108 10.4781 15.1304 9.84465C14.656 9.05581 14.1192 8.16186 14.1192 6.22791C14.1192 3.94233 11.8532 1.39535 8.60201 1.39535Z" fill="white"/>
</svg>
