<svg width="8" height="10" viewBox="0 0 8 10" fill="none" xmlns="http://www.w3.org/2000/svg">
<path d="M1.50903e-06 0.862514V8.63251C1.50903e-06 9.22501 0.652501 9.58501 1.155 9.26251L7.26 5.37751C7.36688 5.30987 7.45492 5.2163 7.51593 5.10549C7.57694 4.99469 7.60893 4.87025 7.60893 4.74376C7.60893 4.61727 7.57694 4.49284 7.51593 4.38204C7.45492 4.27123 7.36688 4.17766 7.26 4.11001L1.155 0.232514C1.04188 0.159347 0.911103 0.118069 0.776474 0.113034C0.641845 0.107999 0.508352 0.139393 0.390079 0.203906C0.271806 0.268418 0.173138 0.363657 0.104482 0.479574C0.0358273 0.595492 -0.000268975 0.727791 1.50903e-06 0.862514Z" fill="white"/>
</svg>
