<svg width="8" height="10" viewBox="0 0 8 10" fill="none" xmlns="http://www.w3.org/2000/svg">
<path d="M6.25 0.997513C6.25 0.7986 6.32902 0.607835 6.46967 0.467183C6.61032 0.326531 6.80109 0.247513 7 0.247513C7.19891 0.247513 7.38968 0.326531 7.53033 0.467183C7.67098 0.607835 7.75 0.7986 7.75 0.997513V8.49751C7.75 8.69643 7.67098 8.88719 7.53033 9.02784C7.38968 9.1685 7.19891 9.24751 7 9.24751C6.80109 9.24751 6.61032 9.1685 6.46967 9.02784C6.32902 8.88719 6.25 8.69643 6.25 8.49751V0.997513ZM0.25 0.997513C0.25 0.7986 0.329018 0.607835 0.46967 0.467183C0.610322 0.326531 0.801088 0.247513 1 0.247513C1.19891 0.247513 1.38968 0.326531 1.53033 0.467183C1.67098 0.607835 1.75 0.7986 1.75 0.997513V8.49751C1.75 8.69643 1.67098 8.88719 1.53033 9.02784C1.38968 9.1685 1.19891 9.24751 1 9.24751C0.801088 9.24751 0.610322 9.1685 0.46967 9.02784C0.329018 8.88719 0.25 8.69643 0.25 8.49751V0.997513Z" fill="white"/>
</svg>
