<svg width="13" height="14" viewBox="0 0 13 14" fill="none" xmlns="http://www.w3.org/2000/svg">
<path d="M10.7036 10.7036C11.4986 9.90861 12.0399 8.89578 12.2593 7.79315C12.4786 6.69052 12.366 5.54761 11.9358 4.50896C11.5055 3.4703 10.777 2.58255 9.84222 1.95796C8.90745 1.33337 7.80847 1 6.68424 1C5.56 1 4.46102 1.33337 3.52625 1.95796C2.59149 2.58255 1.86292 3.4703 1.4327 4.50896C1.00247 5.54761 0.889897 6.69052 1.10922 7.79315C1.32854 8.89578 1.8699 9.90861 2.66485 10.7036" stroke="white" stroke-linecap="round" stroke-linejoin="round"/>
<path d="M6.53644 13H6.83202C7.13996 13.0001 7.43731 12.8876 7.66818 12.6839C7.89904 12.4801 8.04753 12.199 8.08571 11.8935L8.4015 9.36714C8.42372 9.1894 8.40787 9.00896 8.35502 8.83781C8.30216 8.66665 8.21351 8.5087 8.09495 8.37443C7.97638 8.24015 7.83062 8.13263 7.66732 8.059C7.50403 7.98537 7.32694 7.94731 7.14781 7.94735H6.22065C6.04152 7.94731 5.86444 7.98537 5.70114 8.059C5.53785 8.13263 5.39208 8.24015 5.27352 8.37443C5.15495 8.5087 5.0663 8.66665 5.01345 8.83781C4.9606 9.00896 4.94475 9.1894 4.96696 9.36714L5.28275 11.8935C5.32094 12.199 5.46942 12.4801 5.70029 12.6839C5.93116 12.8876 6.22851 13.0001 6.53644 13ZM5.42107 4.78944C5.42107 5.12445 5.55415 5.44574 5.79104 5.68263C6.02793 5.91952 6.34922 6.0526 6.68423 6.0526C7.01925 6.0526 7.34054 5.91952 7.57742 5.68263C7.81431 5.44574 7.9474 5.12445 7.9474 4.78944C7.9474 4.45443 7.81431 4.13314 7.57742 3.89625C7.34054 3.65936 7.01925 3.52628 6.68423 3.52628C6.34922 3.52628 6.02793 3.65936 5.79104 3.89625C5.55415 4.13314 5.42107 4.45443 5.42107 4.78944Z" stroke="white" stroke-linecap="round" stroke-linejoin="round"/>
</svg>
