<svg width="12" height="12" viewBox="0 0 12 12" fill="none" xmlns="http://www.w3.org/2000/svg">
<path d="M7.2 5.88C7.31 5.88 7.4124 5.8374 7.5072 5.7522C7.6024 5.6674 7.66 5.56 7.68 5.43C7.7 5.3 7.7476 5.185 7.8228 5.085C7.8976 4.985 8.01 4.86 8.16 4.71C8.46 4.41 8.66 4.1674 8.76 3.9822C8.86 3.7974 8.91 3.58 8.91 3.33C8.91 2.88 8.7524 2.5126 8.4372 2.2278C8.1224 1.9426 7.71 1.8 7.2 1.8C6.87 1.8 6.5726 1.8774 6.3078 2.0322C6.0426 2.1874 5.83 2.4 5.67 2.67C5.61 2.77 5.6026 2.875 5.6478 2.985C5.6926 3.095 5.775 3.175 5.895 3.225C5.995 3.265 6.1 3.265 6.21 3.225C6.32 3.185 6.415 3.11 6.495 3C6.585 2.88 6.69 2.79 6.81 2.73C6.93 2.67 7.06 2.64 7.2 2.64C7.44 2.64 7.635 2.7074 7.785 2.8422C7.935 2.9774 8.01 3.16 8.01 3.39C8.01 3.53 7.97 3.6624 7.89 3.7872C7.81 3.9124 7.67 4.07 7.47 4.26C7.2 4.49 7.02 4.675 6.93 4.815C6.84 4.955 6.785 5.16 6.765 5.43C6.755 5.55 6.7926 5.655 6.8778 5.745C6.9626 5.835 7.07 5.88 7.2 5.88V5.88ZM7.2 7.8C7.37 7.8 7.5176 7.7376 7.6428 7.6128C7.7676 7.4876 7.83 7.34 7.83 7.17C7.83 7 7.7676 6.8524 7.6428 6.7272C7.5176 6.6024 7.37 6.54 7.2 6.54C7.03 6.54 6.8826 6.6024 6.7578 6.7272C6.6326 6.8524 6.57 7 6.57 7.17C6.57 7.34 6.6326 7.4876 6.7578 7.6128C6.8826 7.7376 7.03 7.8 7.2 7.8ZM3.6 9.6C3.27 9.6 2.9876 9.4826 2.7528 9.2478C2.5176 9.0126 2.4 8.73 2.4 8.4V1.2C2.4 0.87 2.5176 0.5874 2.7528 0.3522C2.9876 0.1174 3.27 0 3.6 0H10.8C11.13 0 11.4126 0.1174 11.6478 0.3522C11.8826 0.5874 12 0.87 12 1.2V8.4C12 8.73 11.8826 9.0126 11.6478 9.2478C11.4126 9.4826 11.13 9.6 10.8 9.6H3.6ZM3.6 8.4H10.8V1.2H3.6V8.4ZM1.2 12C0.87 12 0.5876 11.8826 0.3528 11.6478C0.1176 11.4126 0 11.13 0 10.8V3C0 2.83 0.0576001 2.6874 0.1728 2.5722C0.2876 2.4574 0.43 2.4 0.6 2.4C0.77 2.4 0.9126 2.4574 1.0278 2.5722C1.1426 2.6874 1.2 2.83 1.2 3V10.8H9C9.17 10.8 9.3124 10.8576 9.4272 10.9728C9.5424 11.0876 9.6 11.23 9.6 11.4C9.6 11.57 9.5424 11.7124 9.4272 11.8272C9.3124 11.9424 9.17 12 9 12H1.2ZM3.6 1.2V8.4V1.2Z" fill="white"/>
</svg>
