<svg width="20" height="20" viewBox="0 0 20 20" fill="none" xmlns="http://www.w3.org/2000/svg">
<path fill-rule="evenodd" clip-rule="evenodd" d="M9.61157 0C14.9114 0 19.2224 4.21587 19.2224 9.39884C19.2224 11.8441 18.2628 14.0744 16.6925 15.7482L19.7824 18.7636C20.0716 19.0464 20.0725 19.5039 19.7834 19.7867C19.6393 19.9295 19.4488 20 19.2593 20C19.0708 20 18.8813 19.9295 18.7362 19.7886L15.6091 16.739C13.964 18.0273 11.8783 18.7986 9.61157 18.7986C4.3117 18.7986 -0.000244141 14.5818 -0.000244141 9.39884C-0.000244141 4.21587 4.3117 0 9.61157 0ZM9.61157 1.44776C5.1279 1.44776 1.48017 5.01407 1.48017 9.39884C1.48017 13.7836 5.1279 17.3509 9.61157 17.3509C14.0943 17.3509 17.742 13.7836 17.742 9.39884C17.742 5.01407 14.0943 1.44776 9.61157 1.44776Z" fill="white"/>
</svg>
