<svg width="13" height="12" viewBox="0 0 13 12" fill="none" xmlns="http://www.w3.org/2000/svg">
<path fill-rule="evenodd" clip-rule="evenodd" d="M11.0753 0.135339C10.9911 0.048683 10.877 0 10.758 0C10.6389 0 10.5248 0.048683 10.4406 0.135339C10.3564 0.221995 10.3091 0.339526 10.3091 0.462077C10.3091 0.584627 10.3564 0.702158 10.4406 0.788814L11.4689 1.84656H10.758C9.5961 1.84656 8.70588 2.38558 7.95372 3.12951C7.35217 3.72391 6.8071 4.48353 6.27099 5.23208C6.15266 5.39729 6.03521 5.56158 5.91688 5.7231C4.5802 7.558 3.12877 9.23046 0.448248 9.23046C0.329365 9.23046 0.215352 9.27908 0.131289 9.36562C0.047226 9.45217 0 9.56955 0 9.69195C0 9.81434 0.047226 9.93173 0.131289 10.0183C0.215352 10.1048 0.329365 10.1534 0.448248 10.1534C3.59495 10.1534 5.28126 8.13395 6.63407 6.2769C6.76317 6.09968 6.88778 5.92616 7.0106 5.75541C7.54581 5.00964 8.03261 4.33032 8.57499 3.79498C9.22405 3.15351 9.9027 2.76954 10.758 2.76954H11.4689L10.4406 3.82729C10.3564 3.91394 10.3091 4.03148 10.3091 4.15403C10.3091 4.27658 10.3564 4.39411 10.4406 4.48076C10.5248 4.56742 10.6389 4.6161 10.758 4.6161C10.877 4.6161 10.9911 4.56742 11.0753 4.48076L12.8683 2.63479C12.9101 2.59192 12.9432 2.54099 12.9658 2.48493C12.9884 2.42886 13 2.36875 13 2.30805C13 2.24735 12.9884 2.18724 12.9658 2.13118C12.9432 2.07511 12.9101 2.02418 12.8683 1.98131L11.0753 0.135339ZM0.448248 1.84656C3.00595 1.84656 4.59903 3.1812 5.83171 4.67736L5.71606 4.83981C5.57242 5.04055 5.42779 5.24053 5.28216 5.43975C4.09968 3.96297 2.7128 2.76954 0.448248 2.76954C0.329365 2.76954 0.215352 2.72092 0.131289 2.63438C0.047226 2.54783 0 2.43045 0 2.30805C0 2.18566 0.047226 2.06827 0.131289 1.98173C0.215352 1.89518 0.329365 1.84656 0.448248 1.84656V1.84656ZM7.95372 8.87049C7.50547 8.42838 7.09039 7.89489 6.68607 7.34295C6.85551 7.12328 7.01688 6.90545 7.17197 6.69224L7.25266 6.58148C7.69553 7.19435 8.11598 7.75183 8.57499 8.20594C9.22405 8.84649 9.9027 9.23046 10.758 9.23046H11.4689L10.4406 8.17271C10.3564 8.08606 10.3091 7.96852 10.3091 7.84597C10.3091 7.72342 10.3564 7.60589 10.4406 7.51924C10.5248 7.43258 10.6389 7.3839 10.758 7.3839C10.877 7.3839 10.9911 7.43258 11.0753 7.51924L12.8683 9.36521C12.9101 9.40808 12.9432 9.45901 12.9658 9.51507C12.9884 9.57114 13 9.63125 13 9.69195C13 9.75265 12.9884 9.81276 12.9658 9.86882C12.9432 9.92489 12.9101 9.97582 12.8683 10.0187L11.0753 11.8647C10.9911 11.9513 10.877 12 10.758 12C10.6389 12 10.5248 11.9513 10.4406 11.8647C10.3564 11.778 10.3091 11.6605 10.3091 11.5379C10.3091 11.4154 10.3564 11.2978 10.4406 11.2112L11.4689 10.1534H10.758C9.5961 10.1534 8.70588 9.61442 7.95372 8.87049Z" fill="white"/>
</svg>
