<svg width="11" height="12" viewBox="0 0 11 12" fill="none" xmlns="http://www.w3.org/2000/svg">
<path d="M0.679302 0C0.301307 0 0 0.299972 0 0.676099C0 1.05223 0.301307 1.35225 0.679302 1.35225C1.05727 1.35225 1.35858 1.05223 1.35858 0.676099C1.35858 0.299972 1.05727 0 0.679302 0V0ZM10.3207 0C9.94273 0 9.64142 0.299972 9.64142 0.676099C9.64142 1.05223 9.94273 1.35225 10.3207 1.35225C10.6987 1.35225 11 1.05223 11 0.676099C11 0.299972 10.6987 0 10.3207 0V0ZM0.679302 1.81724C0.301307 1.81724 0 2.11721 0 2.49334C0 2.86947 0.301307 3.16944 0.679302 3.16944C1.05727 3.16944 1.35858 2.86947 1.35858 2.49334C1.35858 2.11721 1.05727 1.81724 0.679302 1.81724ZM10.3207 1.81724C9.94273 1.81724 9.64142 2.11721 9.64142 2.49334C9.64142 2.86947 9.94273 3.16944 10.3207 3.16944C10.6987 3.16944 11 2.86947 11 2.49334C11 2.11721 10.6987 1.81724 10.3207 1.81724ZM1.1357 3.63443C0.757703 3.63443 0.456396 3.93445 0.456396 4.31058C0.456396 4.68671 0.757703 4.98665 1.13567 4.98665C1.51367 4.98665 1.81503 4.68668 1.81503 4.31058C1.81503 3.93445 1.51367 3.63443 1.13567 3.63443H1.1357ZM9.86433 3.63443C9.48633 3.63443 9.18497 3.93445 9.18497 4.31058C9.18497 4.68671 9.48633 4.98665 9.86433 4.98665C10.2423 4.98665 10.5436 4.68668 10.5436 4.31058C10.5436 3.93445 10.2423 3.63443 9.86433 3.63443ZM2.04849 5.45165C1.6705 5.45165 1.36914 5.75164 1.36914 6.12774C1.36914 6.50387 1.67052 6.80389 2.04849 6.80389C2.42649 6.80389 2.72779 6.50387 2.72779 6.12774C2.72779 5.75162 2.42646 5.45165 2.04849 5.45165V5.45165ZM8.95146 5.45165C8.57346 5.45165 8.27216 5.75164 8.27216 6.12774C8.27216 6.50387 8.57349 6.80389 8.95146 6.80389C9.32945 6.80389 9.63081 6.50387 9.63081 6.12774C9.63081 5.75162 9.32943 5.45165 8.95146 5.45165ZM3.67442 6.55905C3.29642 6.55905 2.99506 6.85902 2.99506 7.23512C2.99506 7.61125 3.29645 7.91122 3.67442 7.91122C4.05241 7.91122 4.35369 7.61125 4.35369 7.23515C4.35369 6.85902 4.05238 6.55905 3.67442 6.55905ZM7.32553 6.55905C6.94754 6.55905 6.64626 6.85902 6.64626 7.23512C6.64626 7.61125 6.94756 7.91122 7.32553 7.91122C7.70353 7.91122 8.00489 7.61125 8.00489 7.23515C8.00489 6.85902 7.7035 6.55905 7.32553 6.55905ZM5.5 7.01335C5.122 7.01335 4.8207 7.31332 4.8207 7.68942C4.8207 8.06555 5.12203 8.36557 5.5 8.36557C5.878 8.36557 6.1793 8.06555 6.1793 7.68942C6.1793 7.31329 5.87797 7.01335 5.5 7.01335ZM5.5 8.83056C4.61792 8.83056 3.90793 9.53732 3.90793 10.4153C3.90793 11.2932 4.6179 12 5.5 12C6.38208 12 7.09215 11.2932 7.09215 10.4153C7.09215 9.53732 6.38208 8.83056 5.5 8.83056Z" fill="white"/>
</svg>
